<?xml version="1.0" encoding="UTF-8" standalone="no"?>
<!-- Created with Inkscape (http://www.inkscape.org/) -->

<svg
   xmlns:dc="http://purl.org/dc/elements/1.1/"
   xmlns:cc="http://creativecommons.org/ns#"
   xmlns:rdf="http://www.w3.org/1999/02/22-rdf-syntax-ns#"
   xmlns:svg="http://www.w3.org/2000/svg"
   xmlns="http://www.w3.org/2000/svg"
   xmlns:xlink="http://www.w3.org/1999/xlink"
   xmlns:sodipodi="http://sodipodi.sourceforge.net/DTD/sodipodi-0.dtd"
   xmlns:inkscape="http://www.inkscape.org/namespaces/inkscape"
   width="51.16766mm"
   height="31.53668mm"
   viewBox="0 0 181.30273 111.74414"
   id="svg2"
   version="1.1"
   inkscape:version="0.91 r13725"
   sodipodi:docname="logo_ine.svg"
   inkscape:export-filename="/home/tarcisioe/data_structures/reusable_images/logo_ine.png"
   inkscape:export-xdpi="402.70569"
   inkscape:export-ydpi="402.70569">
  <defs
     id="defs4">
    <linearGradient
       inkscape:collect="always"
       id="linearGradient4376">
      <stop
         style="stop-color:#4ea6ff;stop-opacity:1;"
         offset="0"
         id="stop4378" />
      <stop
         style="stop-color:#4ea6ff;stop-opacity:0;"
         offset="1"
         id="stop4380" />
    </linearGradient>
    <path
       style="fill:none;fill-rule:evenodd;stroke:none;stroke-width:1px;stroke-linecap:butt;stroke-linejoin:miter;stroke-opacity:1"
       d="M 414.98329,716.04455 C 433.11391,693.46626 465.41077,702.67291 470.84473,714.1"
       id="path4299-3"
       inkscape:connector-curvature="0"
       sodipodi:nodetypes="cc" />
    <linearGradient
       inkscape:collect="always"
       xlink:href="#linearGradient4376"
       id="linearGradient4382"
       x1="394.375"
       y1="737.98718"
       x2="497.625"
       y2="737.98718"
       gradientUnits="userSpaceOnUse"
       gradientTransform="translate(-892,0)" />
    <path
       style="fill:none;fill-rule:evenodd;stroke:none;stroke-width:1px;stroke-linecap:butt;stroke-linejoin:miter;stroke-opacity:1"
       d="m 411.54105,766.26494 c 21.60305,20.99336 52.52538,18.10427 67.38573,0.4375"
       id="path4348-7"
       inkscape:connector-curvature="0"
       sodipodi:nodetypes="cc" />
    <path
       style="fill:none;fill-rule:evenodd;stroke:none;stroke-width:1px;stroke-linecap:butt;stroke-linejoin:miter;stroke-opacity:1"
       d="m 411.54105,766.26494 c 21.60305,20.99336 52.52538,18.10427 67.38573,0.4375"
       id="path4348-7-2"
       inkscape:connector-curvature="0"
       sodipodi:nodetypes="cc" />
    <path
       style="fill:none;fill-rule:evenodd;stroke:none;stroke-width:1px;stroke-linecap:butt;stroke-linejoin:miter;stroke-opacity:1"
       d="M 414.98329,716.04455 C 433.11391,693.46626 465.41077,702.67291 470.84473,714.1"
       id="path4299-5"
       inkscape:connector-curvature="0"
       sodipodi:nodetypes="cc" />
    <path
       style="fill:none;fill-rule:evenodd;stroke:none;stroke-width:1px;stroke-linecap:butt;stroke-linejoin:miter;stroke-opacity:1"
       d="m 411.54105,766.26494 c 21.60305,20.99336 52.52538,18.10427 67.38573,0.4375"
       id="path4348-7-2-2"
       inkscape:connector-curvature="0"
       sodipodi:nodetypes="cc" />
    <path
       style="fill:none;fill-rule:evenodd;stroke:none;stroke-width:1px;stroke-linecap:butt;stroke-linejoin:miter;stroke-opacity:1"
       d="M 414.98329,716.04455 C 433.11391,693.46626 465.41077,702.67291 470.84473,714.1"
       id="path4299-5-2"
       inkscape:connector-curvature="0"
       sodipodi:nodetypes="cc" />
  </defs>
  <sodipodi:namedview
     id="base"
     pagecolor="#ffffff"
     bordercolor="#666666"
     borderopacity="1.0"
     inkscape:pageopacity="0.0"
     inkscape:pageshadow="2"
     inkscape:zoom="5.6568543"
     inkscape:cx="64.97476"
     inkscape:cy="41.246529"
     inkscape:document-units="px"
     inkscape:current-layer="layer6"
     showgrid="false"
     showguides="true"
     inkscape:guide-bbox="true"
     fit-margin-top="0"
     fit-margin-left="0"
     fit-margin-right="0"
     fit-margin-bottom="0"
     showborder="true"
     inkscape:window-width="2556"
     inkscape:window-height="1407"
     inkscape:window-x="0"
     inkscape:window-y="0"
     inkscape:window-maximized="0">
    <sodipodi:guide
       position="50.802727,119.74926"
       orientation="0,1"
       id="guide4289" />
  </sodipodi:namedview>
  <metadata
     id="metadata7">
    <rdf:RDF>
      <cc:Work
         rdf:about="">
        <dc:format>image/svg+xml</dc:format>
        <dc:type
           rdf:resource="http://purl.org/dc/dcmitype/StillImage" />
        <dc:title></dc:title>
      </cc:Work>
    </rdf:RDF>
  </metadata>
  <g
     inkscape:groupmode="layer"
     id="layer6"
     inkscape:label="Outline"
     transform="translate(-320.32227,-681.86719)">
    <path
       style="color:#000000;display:inline;overflow:visible;visibility:visible;opacity:1;fill:#ffffff;fill-opacity:1;fill-rule:evenodd;stroke:#ffffff;stroke-width:8;stroke-linecap:butt;stroke-linejoin:round;stroke-miterlimit:4;stroke-dasharray:none;stroke-dashoffset:0;stroke-opacity:1;marker:none;enable-background:accumulate"
       d="m 332.93945,685.86719 c -4.75898,3.8e-4 -8.61681,3.85821 -8.61718,8.61719 3.8e-4,4.75898 3.8582,8.6168 8.61718,8.61718 4.75975,7e-4 8.61876,-3.85743 8.61914,-8.61718 -3.7e-4,-4.75975 -3.85939,-8.61789 -8.61914,-8.61719 z M 446,686.36133 c -19.73964,0.0162 -37.74207,11.28721 -46.37891,29.03711 -7.75781,-7.19643 -21.12163,-9.7449 -32.52539,5.63281 l 0,-9.3418 -13.57422,0.0625 0,62.62891 13.57422,0 0,-38.19727 c 1.10703,-16.69744 25.45095,-20.45049 25.44922,-7.32031 l -0.006,45.51758 13.57422,0 0,-3.66602 c 9.79716,11.95133 24.4331,18.88515 39.88686,18.89649 28.5117,0 51.625,-23.1133 51.625,-51.625 0,-28.5117 -23.1133,-51.625 -51.625,-51.625 z m -106.27344,25.32617 -13.57422,0.0644 0,62.62891 13.57422,0 0,-62.69336 z m -8.81054,65.17383 c -1.51734,0 -2.71119,0.46549 -3.58399,1.39648 -0.8728,0.92652 -1.31055,2.19531 -1.31055,3.80664 0,1.60686 0.43775,2.87565 1.31055,3.80664 0.8728,0.92652 2.06665,1.39063 3.58399,1.39063 0.59082,0 1.15153,-0.0811 1.67968,-0.24219 0.53264,-0.16113 1.03532,-0.40234 1.50977,-0.72461 l 0,-1.41797 c -0.45654,0.42521 -0.94369,0.74471 -1.46289,0.95508 -0.51473,0.21037 -1.06462,0.31445 -1.64649,0.31445 -1.14583,0 -2.02213,-0.34863 -2.63086,-1.04687 -0.60872,-0.70272 -0.91211,-1.71476 -0.91211,-3.03516 0,-1.32487 0.30339,-2.33691 0.91211,-3.03515 0.60873,-0.70272 1.48503,-1.05274 2.63086,-1.05274 0.58187,0 1.13176,0.10409 1.64649,0.31446 0.5192,0.21036 1.00635,0.52791 1.46289,0.95312 l 0,-1.42969 c -0.4655,-0.31779 -0.96346,-0.55428 -1.49609,-0.71093 -0.52816,-0.16114 -1.09359,-0.24219 -1.69336,-0.24219 z m 17.89453,0 c -1.51734,0 -2.71118,0.46549 -3.58399,1.39648 -0.8728,0.92652 -1.31054,2.19531 -1.31054,3.80664 0,1.60686 0.43774,2.87565 1.31054,3.80664 0.87281,0.92652 2.06665,1.39063 3.58399,1.39063 0.59082,0 1.15153,-0.0811 1.67968,-0.24219 0.53264,-0.16113 1.03532,-0.40234 1.50977,-0.72461 l 0,-1.41797 c -0.45654,0.42521 -0.94368,0.74471 -1.46289,0.95508 -0.51473,0.21037 -1.06462,0.31445 -1.64649,0.31445 -1.14583,0 -2.02213,-0.34863 -2.63085,-1.04687 -0.60873,-0.70272 -0.91407,-1.71476 -0.91407,-3.03516 0,-1.32487 0.30534,-2.33691 0.91407,-3.03515 0.60872,-0.70272 1.48502,-1.05274 2.63085,-1.05274 0.58187,0 1.13176,0.10409 1.64649,0.31446 0.51921,0.21036 1.00635,0.52791 1.46289,0.95312 l 0,-1.42969 c -0.46549,-0.31779 -0.96541,-0.55428 -1.49805,-0.71093 -0.52815,-0.16114 -1.09163,-0.24219 -1.6914,-0.24219 z m 45.04492,0 c -1.0966,0 -1.95736,0.25537 -2.58399,0.76562 -0.62215,0.51026 -0.93359,1.20752 -0.93359,2.09375 0,0.76538 0.22567,1.36328 0.67773,1.79297 0.45207,0.42969 1.18376,0.74585 2.19532,0.94727 l 0.82617,0.16015 c 0.68929,0.13876 1.18449,0.3475 1.48437,0.625 0.30437,0.27751 0.45508,0.66195 0.45508,1.1543 0,0.56397 -0.21012,0.99837 -0.63086,1.30273 -0.42073,0.30437 -1.01668,0.45704 -1.79101,0.45704 -0.51026,0 -1.03044,-0.0777 -1.5586,-0.23438 -0.52815,-0.15666 -1.06665,-0.39038 -1.61718,-0.69922 l 0,1.39649 c 0.57291,0.21036 1.12557,0.36914 1.6582,0.47656 0.53711,0.10742 1.04313,0.16211 1.51758,0.16211 1.25773,0 2.21037,-0.25065 2.85937,-0.75195 0.65349,-0.50131 0.98047,-1.23772 0.98047,-2.20899 0,-0.81461 -0.24121,-1.46387 -0.72461,-1.94726 -0.47892,-0.48788 -1.22477,-0.82902 -2.23633,-1.02149 l -0.82031,-0.16601 c -0.743,-0.13876 -1.24707,-0.32113 -1.51562,-0.54493 -0.26408,-0.22827 -0.39649,-0.56469 -0.39649,-1.00781 0,-0.52816 0.1993,-0.93424 0.59766,-1.2207 0.40283,-0.28646 0.97241,-0.42969 1.71094,-0.42969 0.42521,0 0.86572,0.0608 1.32226,0.18164 0.45654,0.12085 0.9423,0.30461 1.45703,0.55078 l 0,-1.32422 c -0.51025,-0.17008 -1.00822,-0.29777 -1.49609,-0.38281 -0.48788,-0.085 -0.96753,-0.12695 -1.4375,-0.12695 z m 10.31055,0 c -1.51734,0 -2.71314,0.46549 -3.58594,1.39648 -0.8728,0.92652 -1.3086,2.19531 -1.3086,3.80664 0,1.60686 0.4358,2.87565 1.3086,3.80664 0.8728,0.92652 2.0686,1.39063 3.58594,1.39063 0.59082,0 1.14957,-0.0811 1.67773,-0.24219 0.53263,-0.16113 1.03727,-0.40234 1.51172,-0.72461 l 0,-1.41797 c -0.45654,0.42521 -0.94564,0.74471 -1.46485,0.95508 -0.51472,0.21037 -1.06266,0.31445 -1.64453,0.31445 -1.14583,0 -2.02213,-0.34863 -2.63086,-1.04687 -0.60872,-0.70272 -0.91406,-1.71476 -0.91406,-3.03516 0,-1.32487 0.30534,-2.33691 0.91406,-3.03515 0.60873,-0.70272 1.48503,-1.05274 2.63086,-1.05274 0.58187,0 1.12981,0.10409 1.64453,0.31446 0.51921,0.21036 1.00831,0.52791 1.46485,0.95312 l 0,-1.42969 c -0.4655,-0.31779 -0.96541,-0.55428 -1.49805,-0.71093 -0.52816,-0.16114 -1.09163,-0.24219 -1.6914,-0.24219 z m -69.00196,0.18164 0,1.14062 3.5586,0 0,8.88282 1.36328,0 0,-8.88282 3.55859,0 0,-1.14062 z m 37.03125,0 0,6.25781 c 0,1.30697 0.32227,2.29403 0.9668,2.96094 0.64901,0.66691 1.60636,1 2.87305,1 1.2622,0 2.21484,-0.33309 2.85937,-1 0.64901,-0.66691 0.97461,-1.65397 0.97461,-2.96094 l 0,-6.25781 -1.36328,0 0,6.08984 c 0,1.07422 -0.19458,1.84782 -0.58398,2.32227 -0.38941,0.46997 -1.0184,0.70508 -1.88672,0.70508 -0.87281,0 -1.50318,-0.23511 -1.89258,-0.70508 -0.38941,-0.47445 -0.58399,-1.24805 -0.58399,-2.32227 l 0,-6.08984 z m 10.56446,0 0,10.02344 1.35742,0 0,-4.78711 3.97461,0 0,-1.14063 -3.97461,0 0,-2.95508 4.40429,0 0,-1.14062 z m -20.19727,3.19336 c -1.13909,0 -2.0625,0.92341 -2.0625,2.0625 0,1.13909 0.92341,2.0625 2.0625,2.0625 1.13909,0 2.0625,-0.92341 2.0625,-2.0625 0,-1.13909 -0.92341,-2.0625 -2.0625,-2.0625 z"
       id="path4358-4"
       inkscape:connector-curvature="0"
       sodipodi:nodetypes="cccccccccccccsccccscccccccscscsccccscscsccccsscscsccccscscsccccsscsscccscsccccscsccccscsccccsscscsccccscscsccccsccccccccccscscsccscscscccccccccccccsssss" />
  </g>
  <g
     inkscape:groupmode="layer"
     id="layer3"
     inkscape:label="Logo"
     style="display:inline"
     transform="translate(-320.32227,-681.86719)">
    <circle
       style="color:#000000;display:inline;overflow:visible;visibility:visible;opacity:1;fill:url(#linearGradient4382);fill-opacity:1;fill-rule:evenodd;stroke:none;stroke-width:8;stroke-linecap:butt;stroke-linejoin:bevel;stroke-miterlimit:4;stroke-dasharray:96, 96;stroke-dashoffset:0;stroke-opacity:1;marker:none;enable-background:accumulate"
       id="path4358"
       cx="-446"
       cy="737.98718"
       r="51.625"
       transform="scale(-1,1)" />
    <flowRoot
       xml:space="preserve"
       id="flowRoot4392"
       style="font-style:normal;font-weight:normal;font-size:13.75px;line-height:125%;font-family:Sans;letter-spacing:0.34px;word-spacing:0px;fill:#000000;fill-opacity:1;stroke:none;stroke-width:1px;stroke-linecap:butt;stroke-linejoin:miter;stroke-opacity:1"
       transform="translate(5.625,-3.75)"><flowRegion
         id="flowRegion4394"><rect
           id="rect4396"
           width="29.125"
           height="15.875"
           x="319.625"
           y="777.11218"
           style="font-size:13.75px;letter-spacing:0.34px" /></flowRegion><flowPara
         id="flowPara4398">CTC</flowPara><flowPara
         id="flowPara4400" /></flowRoot>    <flowRoot
       xml:space="preserve"
       id="flowRoot4392-2"
       style="font-style:normal;font-weight:normal;font-size:13.75px;line-height:125%;font-family:Sans;letter-spacing:0.34px;word-spacing:0px;display:inline;fill:#000000;fill-opacity:1;stroke:none;stroke-width:1px;stroke-linecap:butt;stroke-linejoin:miter;stroke-opacity:1"
       transform="translate(51.374995,-3.7499962)"><flowRegion
         id="flowRegion4394-4"><rect
           id="rect4396-6"
           width="38.875"
           height="17.125"
           x="319.625"
           y="777.11218"
           style="font-size:13.75px;letter-spacing:0.34px" /></flowRegion><flowPara
         id="flowPara4398-1">UFSC</flowPara><flowPara
         id="flowPara4429" /><flowPara
         id="flowPara4400-9" /></flowRoot>    <circle
       style="color:#000000;display:inline;overflow:visible;visibility:visible;opacity:1;fill:#000000;fill-opacity:1;fill-rule:evenodd;stroke:none;stroke-width:8;stroke-linecap:butt;stroke-linejoin:bevel;stroke-miterlimit:4;stroke-dasharray:96, 96;stroke-dashoffset:0;stroke-opacity:1;marker:none;enable-background:accumulate"
       id="path4431"
       cx="362.5625"
       cy="782.29968"
       r="2.0625" />
    <text
       xml:space="preserve"
       style="font-style:normal;font-weight:normal;font-size:11.09515285px;line-height:125%;font-family:Sans;letter-spacing:0.88px;word-spacing:0px;display:inline;fill:#000000;fill-opacity:1;stroke:none;stroke-width:1px;stroke-linecap:butt;stroke-linejoin:miter;stroke-opacity:1"
       id="text4311-3"
       sodipodi:linespacing="125%"
       x="-824.46399"
       y="-1521.7067"
       transform="translate(-1.40793e-6,1.6576855e-6)"><textPath
         xlink:href="#path4348-7-2"
         id="textPath4354"><tspan
   id="tspan4313-0"
   style="font-size:11.09515285px;letter-spacing:0.88px;stroke:none;stroke-opacity:1"><tspan
     id="tspan4315-6"
     style="font-style:normal;font-variant:normal;font-weight:bold;font-stretch:normal;font-size:11.09515285px;font-family:Sans;-inkscape-font-specification:'Sans Bold';letter-spacing:0.88px;stroke:none;stroke-opacity:1"
     y="-1426.3268"
     x="-787.5033">Estatística</tspan></tspan></textPath></text>
    <text
       y="-693.35504"
       x="-409.58649"
       xml:space="preserve"
       style="font-style:normal;font-weight:normal;font-size:11.09515285px;line-height:125%;font-family:Sans;letter-spacing:-0.97000003px;word-spacing:0px;display:inline;fill:#000000;fill-opacity:1;stroke:none;stroke-width:1px;stroke-linecap:butt;stroke-linejoin:miter;stroke-opacity:1"
       id="text4311"
       sodipodi:linespacing="125%"
       transform="translate(-3.144952e-6,2.3126584e-6)"><textPath
         xlink:href="#path4299-5"
         id="textPath4317"><tspan
   id="tspan4313"
   style="font-size:11.09515285px;letter-spacing:-0.97000003px;stroke:none;stroke-opacity:1"><tspan
     id="tspan4315"
     style="font-style:normal;font-variant:normal;font-weight:bold;font-stretch:normal;font-size:11.09515285px;font-family:Sans;-inkscape-font-specification:'Sans Bold';letter-spacing:-0.97000003px;stroke:none;stroke-opacity:1"
     y="95.379822"
     x="36.960667">Informática</tspan></tspan></textPath></text>
    <path
       style="display:inline;fill:#000000;fill-opacity:1;fill-rule:evenodd;stroke:none;stroke-width:1px;stroke-linecap:butt;stroke-linejoin:miter;stroke-opacity:1"
       d="m 326.153,711.75216 13.57393,-0.0639 0,62.69255 -13.57393,0 z"
       id="path3357"
       inkscape:connector-curvature="0" />
    <circle
       style="color:#000000;display:inline;overflow:visible;visibility:visible;opacity:1;fill:#000000;fill-opacity:1;fill-rule:evenodd;stroke:none;stroke-width:8;stroke-linecap:butt;stroke-linejoin:bevel;stroke-miterlimit:4;stroke-dasharray:96, 96;stroke-dashoffset:0;stroke-opacity:0.39622641;marker:none;enable-background:accumulate"
       id="path4183"
       cx="332.93997"
       cy="694.48413"
       r="8.6178637" />
    <path
       id="path3357-8-7"
       style="display:inline;fill:#000000;fill-opacity:1;fill-rule:evenodd;stroke:none;stroke-width:1px;stroke-linecap:butt;stroke-linejoin:miter;stroke-opacity:1"
       d="m 367.09576,721.03217 0,-9.34352 -13.57393,0.0639 0,62.62865 13.57393,0 0,-38.19674 c 1.10703,-16.69744 25.45059,-20.45142 25.44886,-7.32124 l -0.006,45.51798 13.57393,0 7e-5,-46.02151 c 2e-5,-12.82826 -21.75949,-30.59871 -39.01686,-7.32752 z"
       inkscape:connector-curvature="0"
       sodipodi:nodetypes="ccccccsccsc" />
    <path
       id="path4252-9"
       style="display:inline;opacity:1;fill:#000000;fill-opacity:1;fill-rule:evenodd;stroke:none;stroke-width:1px;stroke-linecap:butt;stroke-linejoin:miter;stroke-opacity:1"
       d="m 427.125,733.11221 c -1.60353,-19.70372 25.12763,-26.40576 27.90746,-4.97765 z m 0.62814,10.15403 42.75,-7.625 c -0.88797,-46.11794 -62.71195,-37.87829 -55.56405,6.56626 6.69125,41.60521 52.04382,26.34249 56.49532,15.69651 l -1.68695,-13.17615 c -5.82058,10.65545 -34.2348,26.95892 -41.99432,-1.46162 z"
       inkscape:connector-curvature="0"
       sodipodi:nodetypes="cccccsccc" />
    <path
       style="display:inline;fill:none;fill-rule:evenodd;stroke:none;stroke-width:1px;stroke-linecap:butt;stroke-linejoin:miter;stroke-opacity:1"
       d="M 414.98329,716.04455 C 433.11391,693.46626 465.41077,702.67291 470.84473,714.1"
       id="path4299"
       inkscape:connector-curvature="0"
       sodipodi:nodetypes="cc" />
    <path
       style="display:inline;fill:none;fill-rule:evenodd;stroke:none;stroke-width:1px;stroke-linecap:butt;stroke-linejoin:miter;stroke-opacity:1"
       d="m 411.54105,766.26494 c 21.60305,20.99335 52.52538,18.10427 67.38573,0.4375"
       id="path4348"
       inkscape:connector-curvature="0"
       sodipodi:nodetypes="cc" />
  </g>
</svg>
